<svg width="40" height="29" viewBox="0 0 40 29" fill="none" xmlns="http://www.w3.org/2000/svg"><path d="M.12 19.874c.094-1.133.514-2.488 1.087-3.469.677-1.18 1.705-2.102 2.814-2.86-.724-2.558.082-5.186 2.405-6.552 1.437-.84 3.048-.946 4.636-.455 2.324-4.835 7.684-7.264 12.88-5.78 4.158 1.19 7.393 5.044 7.743 9.376 7.147 1.402 10.124 10.125 5.232 15.648-1.168 1.32-3.89 3.06-5.664 3.06H22.33V20.34h3.025c.467 0 .899-.958.478-1.332-1.903-2.592-3.678-5.301-5.71-7.777-.549-.233-.806-.07-1.168.327-1.891 2.09-3.398 5.115-5.278 7.287-.455.338-.128 1.483.327 1.483h2.99l.116.117v8.396h-9.9c-.28 0-1.168-.257-1.472-.362-2.966-.981-5.324-4.146-5.616-7.217a9 9 0 0 1 0-1.378z" fill="#6951E3"/></svg>