<svg width="152" height="44" viewBox="0 0 152 44" fill="none" xmlns="http://www.w3.org/2000/svg">
<path d="M12.1862 5.66992H32.5173L15.5436 18.6471L17.9684 29.26L4.35221 27.2036L0 15.106L12.1862 5.66992Z" fill="url(#paint0_linear_2249_38884)"/>
<path d="M17.9684 29.2601L4.47656 27.2036L15.4814 18.6748L17.9684 29.2601Z" fill="url(#paint1_linear_2249_38884)"/>
<path d="M23.1911 25.3419L20.4554 14.9854L34.0716 16.9815L38.4859 29.1395L26.6728 38.5755H5.96875L34.0716 16.9815L23.1911 25.3419Z" fill="url(#paint2_linear_2249_38884)"/>
<path d="M20.5156 14.998L23.1891 25.4019L34.0696 16.9336L20.5156 14.998Z" fill="url(#paint3_linear_2249_38884)"/>
<path d="M61.3725 15.6957C61.2312 14.4758 60.6484 13.5308 59.6241 12.8607C58.5997 12.182 57.3105 11.8426 55.7562 11.8426C54.6435 11.8426 53.6811 12.0145 52.8687 12.3581C52.0562 12.6932 51.4249 13.1571 50.9745 13.7499C50.533 14.3341 50.3122 14.9999 50.3122 15.7473C50.3122 16.3744 50.4623 16.9157 50.7626 17.371C51.0715 17.8263 51.4734 18.2086 51.9679 18.5179C52.4712 18.8186 53.01 19.072 53.5839 19.2782C54.1579 19.4758 54.7097 19.639 55.2396 19.7679L57.8889 20.438C58.7543 20.6442 59.6418 20.9234 60.5512 21.2756C61.4609 21.6279 62.3041 22.0918 63.0814 22.6674C63.8584 23.243 64.4853 23.9561 64.9622 24.8066C65.4478 25.6571 65.6908 26.6752 65.6908 27.8607C65.6908 29.3556 65.2933 30.6828 64.4985 31.8427C63.7127 33.0024 62.5692 33.9173 61.0678 34.5875C59.5756 35.2577 57.7695 35.5927 55.6504 35.5927C53.6191 35.5927 51.862 35.279 50.3784 34.6519C48.8948 34.0248 47.7335 33.1355 46.8948 31.9845C46.0557 30.8246 45.5923 29.4499 45.5039 27.8607H49.61C49.6895 28.8142 50.0075 29.6089 50.5637 30.2446C51.1291 30.8718 51.8487 31.3401 52.723 31.6492C53.6061 31.95 54.5729 32.1004 55.6238 32.1004C56.7806 32.1004 57.8094 31.9244 58.7102 31.5721C59.6196 31.2113 60.3349 30.713 60.8559 30.0773C61.3769 29.4329 61.6374 28.6811 61.6374 27.8219C61.6374 27.0401 61.408 26.4003 60.9487 25.902C60.4983 25.4037 59.8845 24.9912 59.1074 24.6648C58.3393 24.3384 57.4695 24.0506 56.498 23.8014L53.2925 22.9509C51.1202 22.3753 49.3981 21.5291 48.1266 20.4122C46.8637 19.2954 46.2324 17.8177 46.2324 15.9792C46.2324 14.4586 46.6563 13.1313 47.5039 11.9973C48.3518 10.8633 49.4997 9.98267 50.9479 9.35553C52.3961 8.7198 54.0299 8.40194 55.849 8.40194C57.6858 8.40194 59.3061 8.71549 60.7102 9.34265C62.1232 9.96979 63.2357 10.8332 64.0481 11.9328C64.8606 13.0239 65.2844 14.2782 65.3199 15.6957H61.3725ZM73.9065 28.4406L73.8801 23.737H74.5688L82.6754 15.3607H87.4174L78.1718 24.8968H77.5491L73.9065 28.4406ZM70.2638 35.1545V8.76276H74.2244V35.1545H70.2638ZM83.1125 35.1545L75.8272 25.7473L78.5557 23.054L87.9737 35.1545H83.1125ZM91.027 35.1545V15.3607H94.9874V35.1545H91.027ZM93.027 12.3066C92.3383 12.3066 91.7466 12.0832 91.2522 11.6365C90.7663 11.1811 90.5236 10.6399 90.5236 10.0127C90.5236 9.37701 90.7663 8.83577 91.2522 8.38903C91.7466 7.93372 92.3383 7.70605 93.027 7.70605C93.7159 7.70605 94.3031 7.93372 94.7887 8.38903C95.2832 8.83577 95.5306 9.37701 95.5306 10.0127C95.5306 10.6399 95.2832 11.1811 94.7887 11.6365C94.3031 12.0832 93.7159 12.3066 93.027 12.3066ZM100.316 35.1545V15.3607H104.117V18.5823H104.369C104.793 17.4913 105.486 16.6408 106.448 16.0308C107.411 15.4122 108.563 15.103 109.906 15.103C111.266 15.103 112.405 15.4122 113.323 16.0308C114.25 16.6494 114.935 17.4999 115.376 18.5823H115.588C116.074 17.5256 116.847 16.6837 117.906 16.0566C118.966 15.4208 120.229 15.103 121.695 15.103C123.54 15.103 125.046 15.6657 126.211 16.7911C127.386 17.9165 127.973 19.6133 127.973 21.8813V35.1545H124.013V22.2421C124.013 20.9019 123.637 19.9311 122.887 19.3298C122.136 18.7284 121.24 18.4277 120.198 18.4277C118.908 18.4277 117.906 18.8143 117.191 19.5875C116.476 20.3521 116.118 21.3358 116.118 22.5385V35.1545H112.171V21.9973C112.171 20.9234 111.826 20.06 111.138 19.4071C110.449 18.7542 109.553 18.4277 108.449 18.4277C107.698 18.4277 107.005 18.621 106.369 19.0076C105.742 19.3856 105.234 19.9139 104.846 20.5927C104.466 21.2713 104.276 22.0574 104.276 22.9509V35.1545H100.316ZM139.202 35.5927C137.913 35.5927 136.748 35.3607 135.705 34.8969C134.664 34.4242 133.838 33.7413 133.228 32.8479C132.628 31.9543 132.328 30.8591 132.328 29.5617C132.328 28.445 132.549 27.5257 132.99 26.804C133.432 26.0823 134.028 25.511 134.778 25.0901C135.529 24.6691 136.368 24.3511 137.295 24.1364C138.222 23.9216 139.167 23.7585 140.13 23.6467C141.348 23.5092 142.337 23.3977 143.097 23.3117C143.856 23.2171 144.408 23.067 144.752 22.8606C145.097 22.6545 145.269 22.3195 145.269 21.8555V21.7653C145.269 20.6399 144.942 19.7679 144.289 19.1493C143.644 18.5308 142.682 18.2215 141.401 18.2215C140.068 18.2215 139.017 18.5093 138.249 19.0849C137.489 19.6519 136.964 20.2834 136.672 20.9792L132.95 20.1545C133.392 18.9518 134.036 17.981 134.884 17.2421C135.741 16.4947 136.725 15.9535 137.838 15.6184C138.951 15.2748 140.121 15.103 141.348 15.103C142.161 15.103 143.022 15.1975 143.931 15.3865C144.85 15.5669 145.706 15.9019 146.501 16.3916C147.305 16.8813 147.962 17.5815 148.475 18.4921C148.987 19.3942 149.243 20.5669 149.243 22.0102V35.1545H145.375V32.4483H145.216C144.96 32.9466 144.576 33.4362 144.064 33.9173C143.552 34.3986 142.894 34.798 142.09 35.1159C141.287 35.4337 140.324 35.5927 139.202 35.5927ZM140.064 32.4998C141.159 32.4998 142.095 32.2893 142.872 31.8683C143.657 31.4474 144.254 30.8976 144.66 30.219C145.075 29.5316 145.282 28.7972 145.282 28.0154V25.4638C145.141 25.6013 144.867 25.7301 144.461 25.8503C144.064 25.9621 143.609 26.0608 143.097 26.1468C142.585 26.2241 142.086 26.2971 141.6 26.3658C141.114 26.4259 140.708 26.4774 140.381 26.5205C139.613 26.6149 138.911 26.7739 138.275 26.9973C137.648 27.2207 137.145 27.5427 136.765 27.9637C136.394 28.3762 136.209 28.926 136.209 29.6132C136.209 30.5669 136.571 31.2886 137.295 31.7783C138.019 32.2593 138.942 32.4998 140.064 32.4998Z" fill="#100351"/>
<defs>
<linearGradient id="paint0_linear_2249_38884" x1="40.9316" y1="19.5544" x2="18.5365" y2="37.6949" gradientUnits="userSpaceOnUse">
<stop stop-color="#F5497B"/>
<stop offset="1" stop-color="#FFA462"/>
</linearGradient>
<linearGradient id="paint1_linear_2249_38884" x1="9.32618" y1="19.8846" x2="15.6359" y2="28.038" gradientUnits="userSpaceOnUse">
<stop stop-color="#EC3B6E"/>
<stop offset="1" stop-color="#FFA462"/>
</linearGradient>
<linearGradient id="paint2_linear_2249_38884" x1="16.9736" y1="35.3224" x2="32.57" y2="25.0121" gradientUnits="userSpaceOnUse">
<stop stop-color="#975CF3"/>
<stop offset="1" stop-color="#CC85EA"/>
</linearGradient>
<linearGradient id="paint3_linear_2249_38884" x1="28.0388" y1="20.2" x2="20.0731" y2="15.3503" gradientUnits="userSpaceOnUse">
<stop stop-color="#975CF3"/>
<stop offset="1" stop-color="#CC85EA"/>
</linearGradient>
</defs>
</svg>
